<?xml version="1.0" encoding="utf-8"?>
<!-- Generator: Adobe Illustrator 25.4.1, SVG Export Plug-In . SVG Version: 6.00 Build 0)  -->
<svg version="1.1" id="Layer_1" xmlns="http://www.w3.org/2000/svg" xmlns:xlink="http://www.w3.org/1999/xlink" x="0px" y="0px"
	 viewBox="0 0 367.16 482.6" style="enable-background:new 0 0 367.16 482.6;" xml:space="preserve">
<style type="text/css">
	.st0{fill:#99A799;}
</style>
<path class="st0" d="M108.52,374.25c6.59,4.85,11.51,10.86,16.66,16.66c9.11,10.26,17.59,11.73,29.75,5.34
	c1.18-0.62,2.31-1.32,3.46-1.99c1-0.58,1.96-1.37,2.95,0.1c1,1.49-0.09,2.05-1.05,2.72c-12.95,9.05-26.59,11.06-39.85-1.37
	c-4.4-4.12-7.8-9.07-11.52-13.75c-3.28-4.12-7.23-6.19-12.52-5.71c-1.48,0.14-3-0.1-4.49,0.04c-3.55,0.36-8.48-1.78-10.35,1.03
	c-2.24,3.37-0.72,8.38-0.61,12.67c0.05,2.03,1.29,3.35,3.35,3.8c1.21,0.27,1.57,1.09,1.32,2.22c-0.24,1.06-1.15,1.08-1.96,1.08
	c-4.32,0.02-8.65,0.01-12.97-0.01c-0.81,0-1.73,0.04-1.94-1.07c-0.2-1.08-0.02-2,1.26-2.26c3.56-0.72,3.53-3.5,3.53-6.21
	c0.02-16.29,0.02-32.58,0-48.87c0-2.68,0.09-5.51-3.46-6.26c-1.26-0.26-1.54-1.11-1.38-2.21c0.19-1.36,1.27-1.33,2.26-1.32
	c11.14,0.1,22.33-0.45,33.39,0.53c9.37,0.83,15.05,7.25,17.39,16.29c2.63,10.14-0.64,19.83-8.36,25.38
	C111.93,372.14,110.37,373.05,108.52,374.25z M80.82,352.46c0,2.16-0.07,4.32,0.01,6.48c0.17,4.46-1.86,10.24,0.77,13.03
	c2.9,3.08,8.81,0.91,13.39,0.98c9.43,0.15,15.77-4.06,18.72-11.97c3.19-8.53,0.89-20.42-4.97-25.56c-2.32-2.04-5.04-3.24-8.15-3.28
	c-5.48-0.07-10.97,0.06-16.45-0.12c-2.69-0.09-3.42,1.01-3.36,3.51C80.91,341.17,80.83,346.82,80.82,352.46z"/>
<path class="st0" d="M46.96,358.67c2.84,1.41,5.41,2.48,7.77,3.9c5.88,3.54,8.96,8.74,8.6,15.73c-0.37,7.2-3.61,12.67-10.06,16.06
	c-3.12,1.64-6.47,2.66-10.02,2.68c-9.97,0.06-19.94,0.08-29.9,0.04c-1.17,0-2.85,0.62-3.21-1.36c-0.28-1.52,0.84-1.91,2.01-2.31
	c2.56-0.88,2.73-3.08,2.73-5.3c0.01-16.61,0.01-33.21,0-49.82c0-2.57-0.19-5.12-3.33-5.9c-1.25-0.31-1.56-1.11-1.42-2.2
	c0.18-1.38,1.31-1.3,2.27-1.29c10.3,0.1,20.64-0.37,30.87,0.52c10.76,0.94,16.68,8.89,14.61,17.9
	C56.55,353.07,52.19,356.05,46.96,358.67z M21.97,376.97c0,4.49,0.14,8.98-0.05,13.46c-0.13,2.91,1.03,3.73,3.78,3.62
	c4.48-0.17,8.98-0.01,13.47-0.05c9.34-0.1,15.3-4.81,16.7-13.18c1.41-8.4-2.62-15.11-11.07-18.32c-6.54-2.48-13.38-2.16-20.2-2.19
	c-2.39-0.01-2.67,1.31-2.65,3.19C21.99,368,21.96,372.49,21.97,376.97z M21.97,344.91c0,3.32,0.03,6.63-0.01,9.95
	c-0.02,1.7,0.35,2.9,2.42,2.89c5.64-0.03,11.34,0.42,16.84-0.99c6.93-1.77,10.74-7.68,9.87-14.65c-0.75-5.97-5.18-9.57-12.31-9.98
	c-1.32-0.08-2.65-0.07-3.98-0.08C21.96,332.01,21.96,332.01,21.97,344.91z"/>
<path class="st0" d="M187.41,397.12c-6.15,0-11.3,0.05-16.46-0.04c-1.19-0.02-2.85,0.72-3.4-1.1c-0.55-1.8,0.81-2.21,2.15-2.63
	c2.41-0.75,2.6-2.83,2.61-4.86c0.03-16.96,0.02-33.92-0.01-50.88c-0.01-2.21-0.26-4.48-2.97-5.1c-1.38-0.32-2.11-0.91-1.79-2.37
	c0.3-1.34,1.44-1.17,2.39-1.17c10.47,0.09,21.02-0.52,31.41,0.47c16.59,1.58,27.82,14.47,28.54,31.3
	c0.8,18.75-8.21,32.56-23.53,35.77C199.76,397.89,193.05,396.77,187.41,397.12z M179.23,362.95c0,8.65,0.16,17.31-0.07,25.96
	c-0.1,3.75,0.72,5.45,4.91,5.11c4.8-0.39,9.65-0.14,14.47-0.07c10.19,0.15,17.09-4.82,21.11-13.86c3.7-8.31,4.27-17.07,2.34-25.91
	c-3.02-13.83-12.75-21.75-26.92-22.08c-3.99-0.1-8,0.15-11.98-0.09c-3.13-0.19-3.98,0.99-3.93,3.99
	C179.34,344.97,179.23,353.96,179.23,362.95z"/>
<path class="st0" d="M260.8,448.81c7.45-4.61,15.15-5.91,22.74-7.59c1.62-0.36,3.23-0.79,4.82-1.27c9.1-2.77,9.9-3.85,9.89-13.21
	c0-2.49,0.02-4.99-0.04-7.48c-0.04-1.73-0.4-3.4-2.32-3.99c-1.23-0.38-2.27-0.75-1.84-2.31c0.36-1.3,1.54-1.05,2.47-1.06
	c3.32-0.05,6.65-0.04,9.98-0.01c0.93,0.01,2.1-0.26,2.4,1.12c0.24,1.14-0.18,1.87-1.38,2.19c-2.72,0.74-2.76,2.94-2.76,5.18
	c0.01,14.46,0,28.92,0.01,43.38c0,2.18-0.05,4.47,2.79,5.11c1.28,0.29,1.53,1.19,1.34,2.24c-0.19,1.01-1.09,1.12-1.94,1.12
	c-3.66,0.01-7.32,0.01-10.97,0c-0.84,0-1.77-0.09-2-1.06c-0.26-1.07,0.07-1.99,1.31-2.25c2.82-0.61,2.93-2.81,2.94-5.03
	c0.02-6.98,0.04-13.96-0.02-20.94c-0.01-1.51,0.44-3.86-2.52-2.41c-6.66,3.25-13.99,4.12-21.06,5.93c-2.25,0.58-4.49,1.27-6.62,2.17
	c-6.57,2.79-9.9,11.91-6.79,18.31c0.14,0.3,0.35,0.56,0.5,0.85c0.75,1.48,4.51,0.72,3.16,3.39c-1.13,2.24-3.91,0.85-5.94,1.03
	c-2.14,0.19-4.32,0.05-6.48,0.01c-0.98-0.02-2.1,0.02-2.37-1.26c-0.25-1.18,0.38-1.83,1.52-2.12c2.8-0.71,2.75-3.08,2.76-5.2
	c0.06-14.46,0.05-28.92,0.02-43.38c-0.01-2.18-0.17-4.43-2.89-5.16c-1.18-0.31-1.64-1.05-1.29-2.21c0.3-1.03,1.24-0.99,2.04-1
	c3.66-0.04,7.31-0.02,10.97-0.02c0.89,0,1.67,0.2,1.82,1.24c0.13,0.88-0.05,1.72-1.04,1.96c-2.97,0.7-3.21,2.94-3.21,5.4
	C260.81,429.63,260.8,438.76,260.8,448.81z"/>
<path class="st0" d="M123.85,441.97c0.01,18.25-12.2,30.64-30.19,30.62c-17.93-0.02-30.11-12.47-30.08-30.75
	c0.03-18.25,12.25-30.63,30.22-30.61C111.76,411.25,123.84,423.61,123.85,441.97z M70.52,442.39c-0.02,4.83,0.9,10.68,3.97,16.03
	c8.26,14.37,29.31,15.1,37.69,1.02c6.6-11.1,6.73-22.92,0.53-34.2c-7.87-14.32-28.4-14.75-37.44-1.12
	C71.85,429.28,70.67,435.07,70.52,442.39z"/>
<path class="st0" d="M235.74,397.11c-0.5,0-1.02,0.09-1.49-0.01c-1.96-0.42-4.9,1.32-5.75-1.22c-0.98-2.93,2.69-2.05,3.97-3.33
	c1.71-1.71,2.61-3.8,3.5-5.96c7.37-17.99,14.75-35.97,22.19-53.93c0.58-1.41,0.53-3.68,2.73-3.71c2.34-0.03,2.67,2.2,3.37,3.81
	c7.52,17.38,15,34.79,22.52,52.17c1.56,3.6,2.47,7.77,7.2,8.83c1.04,0.23,1.04,1.18,0.96,2.02c-0.13,1.42-1.24,1.31-2.23,1.32
	c-4.32,0.01-8.65,0.01-12.97,0.01c-1.02,0-2.06-0.01-2.19-1.4c-0.1-1.14,0.28-1.9,1.56-2.06c2-0.24,3.18-1.37,2.49-3.39
	c-0.71-2.07-0.68-4.98-3.66-5.34c-8.21-1.02-15.53-4.78-23.27-7.26c-1.73-0.55-3.55-0.86-5.36-1.09c-3.7-0.49-6.44,0.46-7.5,4.6
	c-0.65,2.55-2.04,4.91-2.85,7.43c-0.72,2.26-0.56,4.41,2.4,4.97c1.27,0.24,2.32,0.57,2.08,2.14c-0.26,1.66-1.62,1.36-2.73,1.39
	C239.07,397.15,237.4,397.11,235.74,397.11z M278.05,381.33c-6.28-14.55-12.22-28.3-18.57-43.01c-4.98,12.17-9.49,23.19-14.2,34.7
	C257.06,372.7,266.15,380.13,278.05,381.33z"/>
<path class="st0" d="M179.36,436.61c0-4.65,0.02-9.31-0.01-13.96c-0.02-3.19,0.2-6.52-4-7.52c-0.95-0.23-1.26-0.97-1.13-1.91
	c0.15-1.03,0.88-1.34,1.76-1.36c1.99-0.05,4-0.2,5.98-0.01c1.86,0.18,4.45-1.17,5.43,1.07c1.19,2.68-2.23,2.15-3.25,3.44
	c-1.36,1.73-1.44,3.65-1.44,5.65c0,9.64,0.02,19.28-0.01,28.92c-0.03,10.01-5.2,17.1-14.74,20.06c-6.87,2.14-13.79,2.1-20.56-0.4
	c-9.24-3.42-14.51-11.04-14.61-21.07c-0.09-9.14-0.01-18.28-0.03-27.42c-0.01-2.83,0.24-5.8-3.32-6.98
	c-0.94-0.31-1.12-1.14-0.94-2.03c0.2-1.01,0.98-1.25,1.86-1.26c3.66-0.01,7.31-0.01,10.97,0.01c1.05,0.01,2.02,0.22,2.16,1.52
	c0.1,0.94-0.34,1.59-1.24,1.88c-3.07,1.01-3.08,3.58-3.07,6.11c0.02,9.8-0.05,19.61,0.13,29.41c0.21,10.85,8.22,18.14,19.62,18.12
	c12.3-0.01,20.12-7.05,20.28-18.32c0.07-4.65,0.01-9.3,0.01-13.96C179.27,436.61,179.31,436.61,179.36,436.61z"/>
<path class="st0" d="M221.57,472.88c-22.55,0.06-36.51-17.83-30.68-39.57c3.21-11.97,11.36-18.96,23.41-21.05
	c9.53-1.65,18.9-0.31,27.87,3.37c2.98,1.22,5.31,7.95,3.52,10.5c-1.17,1.67-2.4,0.94-3.51-0.49c-8.14-10.49-17.67-13.57-29.37-9.57
	c-10.07,3.44-15.99,12.87-16.08,25.62c-0.14,19.89,12.82,31.14,31.72,27.52c5.85-1.12,10.59-3.86,13.31-9.4
	c0.68-1.39,1.35-2.95,3.24-2.29c1.74,0.61,0.66,2.31,0.88,3.51c1.02,5.4-1.81,7.75-6.65,9.09
	C233.43,471.74,227.6,472.84,221.57,472.88z"/>
<path class="st0" d="M325.15,397.12c-7.32,0.01-14.64,0.04-21.96-0.03c-1.17-0.01-2.86,0.65-3.16-1.4
	c-0.24-1.62,1.07-1.82,2.17-2.18c2.35-0.78,2.71-2.71,2.71-4.81c0-17.13,0-34.26-0.02-51.39c0-2.33-0.59-4.33-3.25-4.89
	c-1.14-0.24-1.76-0.79-1.65-2.03c0.13-1.38,1.13-1.46,2.15-1.46c4.16,0,8.32,0.01,12.48,0.06c0.99,0.01,2.06,0.05,2.16,1.46
	c0.09,1.2-0.53,1.78-1.64,2.08c-2.88,0.8-3.11,3.13-3.11,5.55c0,17.46,0.06,34.92-0.05,52.39c-0.02,2.96,1.16,3.66,3.84,3.61
	c6.15-0.13,12.31-0.11,18.47-0.02c6.03,0.09,10.64-2.21,13.6-7.54c0.74-1.33,1.29-2.77,3.33-2.07c2.18,0.75,1.34,2.3,1.11,3.71
	c-1.51,8.98-1.51,8.98-10.7,8.98c-2.83,0-5.66-0.01-8.48-0.01C330.47,397.11,327.81,397.11,325.15,397.12z"/>
<path class="st0" d="M34.05,411.8c7.32,0,14.65,0.23,21.96-0.1c3.76-0.17,5.13,1.19,5.14,4.7c0,1.32,0.4,2.63,0.49,3.96
	c0.08,1.08,0.77,2.45-0.7,3.09c-1.62,0.71-2.28-0.53-3.09-1.67c-4.33-6.07-12.65-8.87-19.23-6.75c-1.86,0.6-1.56,1.91-1.56,3.15
	c-0.02,15.47-0.02,30.93,0,46.4c0,1.9,0.33,3.76,2.6,4.25c1.22,0.26,1.69,0.89,1.57,2.06c-0.15,1.41-1.24,1.36-2.23,1.37
	c-3.49,0.02-6.99,0.03-10.48,0c-0.97-0.01-2.1,0.06-2.29-1.29c-0.12-0.86,0.07-1.74,1.07-1.96c3.36-0.75,3.17-3.37,3.17-5.89
	c0.01-14.63-0.08-29.27,0.06-43.9c0.03-3.16-0.77-4.28-4.14-4.33c-7.08-0.11-13.82-0.05-17.29,7.72c-0.37,0.82-1.22,1.16-2.1,1
	c-1.35-0.24-1.25-1.32-1.18-2.33c0.01-0.17,0.04-0.33,0.04-0.5c0.14-8.72,0.43-9,9.23-8.99C21.41,411.81,27.73,411.8,34.05,411.8z"
	/>
<path class="st0" d="M144.02,384.74c-0.66,0-1.35,0.11-1.99-0.02c-1.65-0.32-3.99,1.07-4.83-1.27c-0.75-2.1,1.73-1.95,2.72-2.86
	c1.26-1.15,1.14-2.7,1.14-4.18c0.02-13.12,0.01-26.25,0-39.37c0-2.03-0.04-4.1-2.52-4.84c-1.18-0.35-1.61-1.15-1.37-2.25
	c0.22-1.02,1.15-1.05,1.98-1.05c3.49-0.02,6.98-0.02,10.47,0c0.85,0,1.7,0.17,1.91,1.18c0.18,0.88-0.05,1.73-1,2
	c-3.32,0.94-2.88,3.65-2.88,6.09c-0.03,12.46-0.04,24.92,0.01,37.38c0.01,2.22-0.59,4.85,2.53,5.78c1.14,0.34,1.64,1.16,1.3,2.27
	c-0.37,1.21-1.48,1.13-2.49,1.13C147.35,384.73,145.68,384.73,144.02,384.74z"/>
<path class="st0" d="M340.78,471.82c-8.16,0.01-13.73-5.47-13.86-13.66c-0.13-8.15,5.41-13.9,13.5-14.02
	c8.48-0.12,14.08,5.41,14.08,13.9C354.5,466.19,348.91,471.81,340.78,471.82z M349.72,457.8c-0.05-6.51-3.82-10.95-9.2-10.83
	c-5.26,0.12-8.93,4.77-8.85,11.21c0.09,6.53,3.81,10.88,9.23,10.79C346.25,468.88,349.78,464.41,349.72,457.8z"/>
<path class="st0" d="M341.71,439.91c-9.07,0.03-15.13-5.89-14.78-14.43c0.35-8.4,6.54-13.75,15.4-13.25
	c2.83,0.16,5.58,0.71,8.26,1.71c1.98,0.74,2.21,2.22,2.11,3.99c-0.05,0.97,0.21,2.08-1.21,2.28c-1.78,0.25-2.06-1.35-2.84-2.33
	c-2.26-2.84-5.41-3.05-8.61-2.69c-4.39,0.5-7.58,3.98-8.25,8.72c-0.78,5.5,1.31,10.51,5.54,12.23c4.31,1.75,8.47,1.66,11.63-2.47
	c0.7-0.91,1.17-2.06,2.66-1.78c1.14,0.22,1.07,1.1,1.06,1.91c-0.03,1.64,0.22,3.37-1.78,4.23
	C347.97,439.31,344.91,439.94,341.71,439.91z"/>
<path class="st0" d="M29.09,318.95c0.49-2,2.1-1.79,3.58-1.79c10.94-0.01,21.87-0.01,32.81,0c1.48,0,3.09-0.21,3.58,1.8
	C55.74,318.95,42.42,318.95,29.09,318.95z"/>
<path class="st0" d="M223.54,309.53c8.1,1.96,15.61,5.88,23.86,7.36c1.16,0.21,2.25,0.64,2.44,2.06
	C240.61,317.12,231.6,314.65,223.54,309.53z"/>
<path class="st0" d="M77.06,316.17c0.17-1.98,1.14-3.03,3.22-2.82C79.53,314.66,78.47,315.62,77.06,316.17z"/>
<path class="st0" d="M220.48,307.56c1.46,0.03,2.74,0.33,3.13,2.01C222.31,309.3,221.19,308.75,220.48,307.56z"/>
<path class="st0" d="M75.31,317.54c0.11-1.07,0.86-1.32,1.76-1.37C76.48,316.62,75.9,317.08,75.31,317.54z"/>
<path class="st0" d="M83.48,310.59c-0.05-0.72,0.27-1.05,1.01-0.94C84.15,309.97,83.81,310.28,83.48,310.59z"/>
<path class="st0" d="M82.34,311.53c0.06-0.68,0.41-1.02,1.11-0.96C83.08,310.89,82.71,311.21,82.34,311.53z"/>
<path class="st0" d="M81.26,312.47c0.11-0.64,0.48-1,1.14-1.03C82.02,311.78,81.64,312.13,81.26,312.47z"/>
<path class="st0" d="M80.19,313.4c0.38-0.35,0.77-0.69,1.16-1.04C80.96,312.71,80.58,313.06,80.19,313.4z"/>
<path class="st0" d="M74.18,318.52c0.4-0.38,0.8-0.75,1.21-1.13C74.98,317.76,74.58,318.14,74.18,318.52z"/>
<path class="st0" d="M168.47,310.92c-0.09-0.05-0.19-0.11-0.28-0.16c0.1-0.15,0.2-0.3,0.31-0.46c0.09,0.11,0.26,0.22,0.26,0.32
	C168.74,310.72,168.57,310.82,168.47,310.92z"/>
<g>
	<path class="st0" d="M81.35,312.36c-0.03,0.02-0.05,0.05-0.08,0.07c0,0.01-0.01,0.02-0.01,0.04
		C81.26,312.47,81.35,312.36,81.35,312.36z"/>
	<path class="st0" d="M80.28,313.36c-0.01,0-0.02,0-0.04,0c-0.02,0.02-0.04,0.03-0.06,0.05C80.19,313.4,80.28,313.36,80.28,313.36z"
		/>
	<polygon class="st0" points="77.07,316.17 77.06,316.17 77.06,316.17 	"/>
	<path class="st0" d="M223.62,309.57c0-0.01-0.01-0.01-0.01-0.02c-0.02-0.01-0.05-0.01-0.07-0.02
		C223.54,309.53,223.61,309.58,223.62,309.57z"/>
	<path class="st0" d="M82.4,311.44c-0.02,0-0.03,0.01-0.04,0.01c0,0.03-0.02,0.05-0.02,0.08C82.34,311.53,82.4,311.44,82.4,311.44z"
		/>
	<path class="st0" d="M60.76,62.25c0.01-0.02,0.03-0.03,0.04-0.05C60.8,62.21,60.78,62.23,60.76,62.25z"/>
	<path class="st0" d="M58.77,64.36c0,0,0.01-0.01,0.01-0.01c0.03-0.03,0.06-0.06,0.09-0.09C58.87,64.26,58.77,64.36,58.77,64.36z"/>
	<path class="st0" d="M75.39,317.38c-0.02,0.02-0.04,0.04-0.06,0.05c-0.01,0.04-0.02,0.06-0.02,0.1
		C75.31,317.54,75.39,317.38,75.39,317.38z"/>
	<path class="st0" d="M264.73,74.72c-0.02-0.02-0.05-0.03-0.07-0.05c0,0,0,0,0,0L264.73,74.72z"/>
	<path class="st0" d="M56.91,66.34c-0.03,0.03-0.08,0.08-0.08,0.08C56.86,66.39,56.89,66.36,56.91,66.34z"/>
	<path class="st0" d="M354.44,314.25c0.1-45.76,0.17-91.52,0.03-137.27c-0.05-16.87-1.98-33.51-7.79-49.51
		c-0.23-0.7-0.46-1.4-0.69-2.1c-2.93-10.45-7.18-20.31-13.06-29.46c0.09-0.21,0.02-0.35-0.2-0.41c-0.55-1.93-1.54-3.6-2.98-5
		c0,0,0-0.01,0-0.01c-0.29-0.46-0.59-0.91-0.88-1.37c-0.34-0.55-0.69-1.1-1.03-1.65c-0.36-0.04-0.68-0.11-0.94-0.22
		c0.26,0.11,0.58,0.18,0.94,0.22c-0.52-0.78-1.04-1.57-1.56-2.35c-0.03,0.08-0.04,0.15-0.07,0.22l0.04-0.23
		c-0.41-0.58-0.82-1.16-1.23-1.74c0,0,0,0,0,0l0,0h0c-0.42-0.62-0.84-1.25-1.27-1.87c0,0,0,0,0,0c-0.2-1.04-0.8-1.78-1.7-2.3
		c0,0.01,0,0.01,0,0.02c-0.42-0.58-0.84-1.16-1.26-1.74c0,0,0,0,0,0c-0.27-1.01-0.86-1.76-1.79-2.25c0,0.01,0,0.02,0,0.03
		c-0.3-0.35-0.6-0.69-0.9-1.03c0.02,0,0.03,0.01,0.05,0.01c-0.45-0.59-0.89-1.18-1.34-1.77c0,0,0,0,0,0
		c-0.57-1.39-1.47-2.5-2.8-3.23c0,0.01,0,0.02,0,0.04c-0.31-0.35-0.62-0.71-0.93-1.06c0.02,0,0.03,0.01,0.04,0.01
		c-0.34-0.35-0.67-0.7-1.01-1.05c0.02,0,0.03,0.01,0.04,0.01c-0.32-0.36-0.63-0.73-0.95-1.09c0,0-0.33,0.02-0.33,0.02l0.33-0.06
		c-0.31-0.31-0.63-0.62-0.95-0.93l0.01-0.04c-0.48-0.53-0.96-1.07-1.44-1.6c0,0,0,0,0,0c-0.67-0.67-1.33-1.33-2-2c0,0,0,0,0,0
		c-0.68-0.67-1.35-1.35-2.03-2.02c-0.67-0.65-1.34-1.3-2-1.95c-0.54-0.49-1.08-0.97-1.62-1.46c0,0-0.01,0-0.01,0
		c-0.34-0.31-0.69-0.63-1.04-0.94l0,0c-0.36-0.32-0.72-0.64-1.08-0.95c0.02,0,0.04,0,0.07,0c-1.14-1.57-2.51-2.87-4.29-3.69
		c0,0,0,0,0,0c-0.58-0.44-1.17-0.89-1.75-1.33c0.02,0,0.04,0,0.07-0.01c-0.99-1.44-2.34-2.42-3.94-3.06c0,0-0.26,0.05-0.26,0.05
		l0.25-0.11c-0.89-1.15-1.97-2.04-3.38-2.48c0,0,0,0,0,0c-0.67-0.5-1.34-1-2.02-1.5c-0.3-0.17-0.61-0.35-0.91-0.52
		c-0.97-1.25-2.26-2-3.76-2.42c0,0,0.05-0.02,0.05-0.02c-0.79-1.02-1.81-1.66-3.07-1.91c-0.76-0.48-1.52-0.96-2.28-1.44
		c-0.14-0.24-0.36-0.34-0.64-0.3c-4.4-3.24-9.28-5.58-14.35-7.54c-0.48-0.16-0.95-0.33-1.43-0.49
		c-15.94-7.86-32.86-12.03-50.51-13.45c-1.34-0.09-2.68-0.17-4.01-0.26c-14.25-1.28-28.52-1.23-42.72,0.22
		c-18.95,1.93-37.18,6.67-54.13,15.67c-0.67,0.34-1.33,0.67-2,1.01c-3.94,1.45-7.59,3.43-10.9,6.02c0,0-0.06,0.03-0.06,0.03
		c-1.27,0.23-2.26,0.91-3.06,1.9c-2.3,0.88-4.3,2.2-6,3.97c-1.04,0.19-1.77,0.8-2.29,1.69c0.01,0,0.01,0,0.02,0
		c-0.6,0.42-1.2,0.84-1.8,1.27c0,0,0,0,0,0l0,0c0,0,0.01,0,0.01,0l0,0c0.11,0,0.22,0,0.33-0.01c-0.11,0.01-0.22,0.01-0.33,0.01
		c-0.38,0.31-0.77,0.61-1.15,0.92c0,0,0.09-0.11,0.09-0.11c-0.37,0.31-0.74,0.62-1.12,0.93c0-0.02,0.01-0.04,0.01-0.06
		c-0.6,0.44-1.19,0.88-1.79,1.32c0,0,0,0,0-0.01c-1.41,0.51-2.47,1.46-3.29,2.7c0,0,0.05,0.01,0.05,0.01
		c-0.37,0.32-0.73,0.64-1.09,0.96c0-0.02,0-0.04,0-0.07c-0.55,0.47-1.11,0.93-1.66,1.4c0,0,0,0,0,0c-1.01,0.32-1.74,0.95-2.13,1.94
		c0.01,0,0.02,0,0.03,0c-0.34,0.32-0.69,0.64-1.03,0.96c-0.43,0.35-0.86,0.7-1.29,1.04c-0.22,0.22-0.45,0.44-0.67,0.66
		c-0.37,0.41-0.74,0.82-1.1,1.22c0.01-0.03,0.02-0.05,0.02-0.08c-0.35,0.33-0.69,0.67-1.04,1c0-0.01,0-0.01,0.01-0.02
		c-0.34,0.34-0.67,0.68-1,1.01c0-0.01,0-0.01,0-0.02c-0.36,0.36-0.72,0.73-1.08,1.09c0,0,0.02-0.02,0.04-0.04
		c-0.32,0.35-0.64,0.7-0.97,1.05c-0.33,0.35-0.67,0.69-1.01,1.04c-0.32,0.35-0.65,0.7-0.97,1.05c-0.3,0.31-0.6,0.63-0.9,0.94
		c0.01-0.01,0.02-0.02,0.02-0.02c-0.33,0.36-0.66,0.73-0.99,1.09c0-0.01,0-0.02,0-0.03c-0.96,0.42-1.59,1.15-1.92,2.13c0,0,0,0,0,0
		c-0.46,0.57-0.93,1.15-1.39,1.72c0.01,0,0.02,0,0.03,0c-0.31,0.36-0.62,0.72-0.93,1.07c0.01,0,0.01,0,0.02-0.01
		c-0.29,0.35-0.59,0.7-0.88,1.04c0-0.01,0-0.03,0-0.04c-1.18,0.61-1.84,1.63-2.25,2.85c0.02,0,0.04,0,0.06-0.01
		c-0.3,0.37-0.6,0.74-0.9,1.11c0-0.02,0-0.03-0.01-0.04c-0.92,0.5-1.52,1.25-1.76,2.28c-0.35,0.5-0.71,0.99-1.06,1.49
		c-1.14,0.81-1.88,1.9-2.24,3.25c-1.12,0.67-1.7,1.72-2.01,2.96c-2.1,2.07-3.46,4.61-4.57,7.31c-0.22,0.09-0.29,0.26-0.22,0.48
		c-0.4,0.75-0.81,1.49-1.21,2.24c0-0.02,0.01-0.04,0.01-0.06c-0.58,0.8-1.26,1.53-1.72,2.39c-11.24,21.16-18.37,43.68-18.69,67.63
		c-0.65,49.52-0.31,99.04-0.48,148.57c-0.01,3.58,1.62,3.81,4.3,3.21c3.66,0,7.32,0,10.97,0c0.49-2,2.1-1.79,3.58-1.79
		c10.94-0.01,21.87-0.01,32.81,0c1.48,0,3.09-0.21,3.58,1.8c1.73,0.11,3.5,0.68,5.12-0.44c0.38-0.36,0.76-0.72,1.15-1.08
		c0.15-0.98,0.87-1.22,1.74-1.27c0.17-1.96,1.13-3.01,3.18-2.81c0.34-0.31,0.68-0.62,1.02-0.92c0.11-0.6,0.47-0.94,1.09-0.98
		c0.08-0.62,0.43-0.93,1.09-0.88c0,0,0.02,0.03,0.02,0.03c-0.05-0.72,0.27-1.05,1.01-0.94c0,0,0.09,0.01,0.09,0.01
		c2.29-1.31,4.22-3.02,5.8-5.13c0,0-0.06,0-0.06,0c0.02-0.17,0.05-0.32,0.1-0.44c-0.05,0.13-0.09,0.27-0.1,0.44
		c0.37-0.32,0.73-0.64,1.1-0.96c0,0.02,0,0.04,0,0.06l0,0v0v0c0.55-0.47,1.11-0.93,1.66-1.4c0,0,0,0,0,0
		c2.31-1.31,4.24-3.06,5.99-5.03c0.71-0.58,1.43-1.17,2.14-1.75c2.49-0.98,5.02-1.38,7.75-1.22c5.98,0.35,11.51-1.19,16.45-4.67
		c-0.15-0.14-0.31-0.28-0.46-0.42h0c0.15,0.14,0.31,0.28,0.46,0.42c19.1-10.37,29.8-25.77,29.66-48.13
		c-0.08-13.29,0.27-13.32,12.26-15.84c7.93-1.66,14.76-5.98,22.13-9c1.18-0.48,2.55-1.71,3.7-0.79c1.38,1.1,0.45,2.77,0.04,4.16
		c-3.22,10.67-5.89,21.48-8.1,32.41c-1.52,7.54-3.86,14.81-7.41,21.63c-2.62,5.04-4.74,10.26-6.42,15.66
		c-2.53,8.11-5.44,16.05-9.5,23.54c-0.91,1.68-2.63,4.09-0.99,5.35c1.85,1.42,4.75,1.21,6.92-0.6c1.02-0.85,2.02-1.74,2.93-2.71
		c15.31-16.27,28.1-34.13,35.15-55.62c1.31-3.98,3.08-7.75,5.37-11.22c15.46-23.41,32.64-45.32,54.77-62.95
		c4.81-3.83,9.41-7.92,13.17-12.84l-0.15-0.17c0.08,0.08,0.15,0.17,0.15,0.17c0.32-0.35,0.63-0.7,0.95-1.06
		c1.32-0.72,2.29-1.77,2.91-3.13c1.28-1.37,2.57-2.73,3.85-4.1c0.65-0.39,1.3-0.78,1.95-1.16c0,0,0.18,0.21,0.18,0.21
		c-0.03,3.79-1.65,7.21-2.45,10.83c0,0,0,0,0,0c-1.84,2.59-4,5.93-2.19,8.4c1.51,2.07,4.78-0.01,6.87-1.72c0,0,0.1-0.09,0.1-0.09
		c0.33-0.28,0.66-0.57,0.99-0.85c0,0,0.18-0.09,0.18-0.09c0.43-0.51,0.85-1.02,1.28-1.53c0,0,0.06-0.07,0.06-0.07
		c0.69-0.05,1.37-0.1,2.06-0.14c-0.01,0.75-0.02,1.49-0.03,2.24c-0.28,0.09-0.42,0.29-0.43,0.59c0,0,0.08,0.03,0.08,0.03
		c-0.33,0.39-0.66,0.78-0.99,1.16c0,0,0.01,0,0.01,0c-0.29,0.32-0.59,0.64-0.88,0.96c-0.36,0.36-0.73,0.71-1.09,1.07
		c0,0,0.1-0.11,0.1-0.11c-0.35,0.32-0.69,0.64-1.04,0.96c0-0.01,0.01-0.02,0.01-0.03c-0.61,0.44-1.23,0.88-1.84,1.33
		c0.11,0,0.23-0.01,0.33-0.02c-0.11,0.01-0.22,0.02-0.33,0.02c-0.36,0.2-0.71,0.4-1.07,0.61c-1.9,0.89-5.15,0.5-4.62,3.88
		c0.8,5.1,1.12,10.4,4.41,14.77c-0.01,0-0.02-0.01-0.04-0.01c0.38,1.75,1.4,3.07,2.78,4.15c0,0,0.09,0.05,0.09,0.05
		c0.45,0.54,0.9,1.09,1.35,1.63c1.25,2.79,0.85,5.4-0.87,7.87c-3.43,1.86-6.87,3.72-10.3,5.58c0,0,0.27,0.14,0.27,0.14l-0.29-0.11
		c-0.35,0.35-0.7,0.7-1.05,1.05c0,0,0.01,0.01,0.01,0.01c-0.29,0.4-0.58,0.8-0.86,1.2c0,0,0,0,0.01,0c-2,2.38-0.92,5.45-1.79,8.09
		c-0.62,0.69-1.25,1.38-1.87,2.07c0,0-0.05,0.03-0.05,0.03c-1.97,0.41-2.63,1.54-2.31,3.56c0.28,1.75,0.19,3.56,0.27,5.35l0,0
		c0,0-0.2,0.16-0.2,0.16l0.05,0.25c-0.33,0.44-0.67,0.89-1.01,1.33c0-0.01,0.01-0.02,0.01-0.04c-0.61,0.44-1.21,0.87-1.82,1.31
		c0,0-0.01,0.01-0.01,0.01c-2,0.58-3.07,1.97-3.11,4c-0.07,3.97-1.75,7.38-3.45,10.81c-0.53,0.52-1.06,1.04-1.59,1.56
		c-0.74,0.48-1.49,0.96-2.23,1.44c-0.26-0.06-0.47,0.02-0.62,0.25c-2.67,0.71-5.33,1.42-8,2.12c-1.34-0.04-2.69-0.07-4.03-0.11
		c-6.62-2.09-13.17-4.38-19.86-6.19c-5.38-1.46-10.96-2.87-16.09,1.01c0,0,0,0,0,0c-1.5,0.52-2.51,1.52-3.02,3.02
		c-5.53,7.53-6.48,18.6-2.16,25.14c-0.01,0-0.02-0.01-0.03-0.01c0.19,1.43,0.95,2.52,2.08,3.38c-0.04,0.24,0.06,0.4,0.29,0.49
		c0.21,1.01,0.79,1.75,1.7,2.23c0-0.01,0-0.02,0-0.03c0.3,0.35,0.6,0.71,0.9,1.06c-0.02,0-0.03-0.01-0.05-0.01
		c0.33,0.36,0.66,0.73,0.99,1.09c-0.02,0-0.03-0.01-0.04-0.01c0.33,0.35,0.66,0.69,0.99,1.03l-0.01,0.02c0.33,0.33,0.67,0.66,1,0.99
		l-0.01,0.01c0.34,0.34,0.67,0.68,1.01,1.01c0,0,0,0.01-0.01,0.01c0.01,0,0.01,0,0.01,0l0,0c-0.01,0-0.01,0-0.01,0
		c0.36,0.32,0.73,0.65,1.1,0.97c0-0.01,0-0.01,0-0.02c0.35,0.3,0.69,0.59,1.04,0.89c0.65,1.15,1.64,1.86,2.91,2.2
		c0-0.03-0.01-0.05-0.02-0.08c1.45,0.03,2.71,0.34,3.12,1.99c8.08,1.97,15.56,5.87,23.8,7.34c1.16,0.21,2.25,0.64,2.44,2.06
		c34.29,0.01,68.57,0.01,102.86,0.02C356.06,318.46,354.44,315.79,354.44,314.25z M215.48,303.59
		C215.48,303.59,215.48,303.59,215.48,303.59c0.52-0.04,0.84,0.14,0.99,0.52C216.32,303.73,215.99,303.55,215.48,303.59z
		 M291.34,185.64c-0.11,0.17-0.25,0.3-0.41,0.4C291.09,185.94,291.23,185.81,291.34,185.64z M303.79,109.27
		c-0.04-0.21-0.1-0.4-0.19-0.59C303.68,108.87,303.74,109.07,303.79,109.27z M303.08,108.06c-0.09-0.08-0.2-0.15-0.31-0.21
		C302.88,107.91,302.99,107.98,303.08,108.06z M101.54,108.75c0.01-0.29,0.03-0.58,0.07-0.87
		C101.57,108.16,101.55,108.45,101.54,108.75z M99.94,134.99c0.01-0.35,0.03-0.7,0.06-1.06C99.96,134.29,99.94,134.64,99.94,134.99z
		 M81.77,44.23L81.77,44.23c-0.06,0.38-0.2,0.66-0.4,0.85C81.58,44.89,81.71,44.61,81.77,44.23z M78.11,156.55L78.11,156.55
		c1.34-1.04,2.68-2.07,4.02-3.11c0.32-0.3,0.63-0.61,0.95-0.91c0,0,0,0,0,0c5.88-1.77,11.9-1.76,17.95-1.41
		c0.67,0.05,1.34,0.1,2.01,0.15c0.56,0.19,1.12,0.38,1.68,0.57c0-0.01,0-0.01,0-0.02c0.75,0.56,1.49,1.12,2.24,1.68
		c0.68,0.64,1.36,1.29,2.04,1.93c0.06,0.61,0.39,0.94,1.02,0.96c0.1,0.2,0.25,0.26,0.46,0.17c0.41,0.38,0.82,0.75,1.24,1.13
		c-0.03-0.01-0.06-0.02-0.1-0.02c0,0,0,0,0,0c0,0,0,0,0,0l0,0c0.43,0.62,0.87,1.24,1.3,1.86c0,0,0,0,0,0
		c0.27,0.38,0.53,0.77,0.8,1.15c-0.02,0-0.04-0.01-0.06-0.02c0,0,0,0,0,0c0,0,0,0,0,0l0.01,0c0.34,0.37,0.67,0.75,1.01,1.12
		l-0.05,0.15c8.15,3.77,10.97,10.97,12.41,19.13c0.52,2.94,1.35,5.83,2.1,8.73c1.81,7.05,1.78,7.14-5.7,6.74
		c-12.41-0.67-23.31-6.44-34.75-10.37c-1.56-0.54-3.1-1.15-4.65-1.73v0l-0.06-0.02c-0.22-0.05-0.46-0.07-0.7-0.08
		c0.24,0.01,0.48,0.03,0.7,0.08c-1.42-1.16-3.08-1.8-4.84-2.21c-0.35-0.28-0.7-0.56-1.05-0.83c-0.31-0.41-0.63-0.83-0.94-1.24
		c-0.22-0.58-0.44-1.16-0.66-1.74c-2.22-3.49-3.03-8.28-2.44-12.48c0.12-0.84,0.29-1.66,0.52-2.43c-0.23,0.78-0.41,1.59-0.52,2.43
		c-0.59,4.2,0.21,8.99,2.44,12.48c-1.05-6.34-1.66-12.67,0.14-18.98c0.33-0.14,0.51-0.39,0.52-0.75c0.23-0.4,0.46-0.81,0.69-1.21
		C77.99,157.16,78.09,156.86,78.11,156.55z M114.79,155.53c0.24,0.19,0.5,0.35,0.76,0.46C115.28,155.89,115.03,155.73,114.79,155.53
		z M76.75,211.32c-0.18,0.21-0.4,0.36-0.67,0.44C76.35,211.68,76.57,211.53,76.75,211.32z M77.26,210.07
		C77.26,210.07,77.26,210.07,77.26,210.07c-0.79-0.98-1.97-1.08-3.06-1.37c-1.38-0.42-2.65-0.98-3.33-2.38l0,0
		c-0.62-5.25,2.7-9.34,4.15-13.98l0.21-0.17l-0.04-0.26c0.36-0.5,0.72-0.99,1.07-1.49c1.6-1.6,3.5-2.4,5.78-2.15l0,0
		c0.67,0.23,1.33,0.47,2,0.7c0.54,0.17,1.08,0.33,1.62,0.5c0,0,0,0,0,0c1.08,0.46,2.16,0.93,3.24,1.39
		c0.69,0.21,1.39,0.43,2.08,0.64c6.29,3.12,13.08,4.67,19.85,6.29c1.15,0.27,3.09-0.05,3.18,1.69c0.08,1.51-1.64,1.93-2.81,2.44
		c-7.2,3.14-14.2,6.59-19.21,12.94c-1.39,1.76-2.49,0.8-3.8-0.01c-3.4-2.09-6.87-4.03-10.83-4.87c0,0,0,0,0,0L77.26,210.07z
		 M79.59,183.55c0.15,0.21,0.32,0.38,0.5,0.5C79.9,183.93,79.73,183.77,79.59,183.55z M86.45,186.91c0.23,0.09,0.46,0.16,0.7,0.23
		C86.91,187.08,86.67,187,86.45,186.91z M86.65,189.43c-0.04,0-0.09,0-0.13,0.01C86.56,189.43,86.61,189.43,86.65,189.43z
		 M84.48,185.45c0.14,0.21,0.29,0.4,0.46,0.57c0.2,0.19,0.42,0.36,0.66,0.5c-0.24-0.14-0.46-0.3-0.66-0.5
		C84.76,185.85,84.61,185.66,84.48,185.45z M57.81,65.39c0-0.01,0.1-0.1,0.1-0.1C57.88,65.32,57.84,65.36,57.81,65.39z M60.72,62.29
		L60.72,62.29c0.16-0.02,0.31-0.05,0.44-0.11C61.03,62.24,60.88,62.28,60.72,62.29z M61.78,61.28L61.78,61.28
		c0.3-0.04,0.53-0.14,0.7-0.31C62.31,61.14,62.08,61.24,61.78,61.28z M63.36,247.74c0.01,0.32,0.02,0.65,0.06,0.97
		C63.38,248.39,63.37,248.07,63.36,247.74z M64.5,251.29c0.02,0.02,0.03,0.03,0.04,0.05C64.53,251.32,64.52,251.3,64.5,251.29z
		 M63.75,250.12c0.09,0.24,0.22,0.46,0.36,0.68C63.97,250.58,63.84,250.35,63.75,250.12z M66.01,252.24
		c-3.34-12.08-1.05-24,1.02-35.93l0,0c1.04-1.26,2.07-2.52,3.11-3.78c9.57,1.55,18,4.79,22.15,14.61c0.56,1.32,1.61,2.43,2.43,3.64
		c0.14-0.75,0.44-1.36,0.88-1.85c-0.44,0.49-0.73,1.1-0.87,1.85c-0.23,0.54-0.47,1.08-0.7,1.61c-2.26-0.24-4.36,0.13-6.2,1.57
		c0.01-0.03,0.02-0.04,0.03-0.07c-0.96,0.07-1.8,0.37-2.39,1.19c-0.51,0.32-1.01,0.64-1.52,0.96c-0.41,0.33-0.81,0.67-1.22,1
		c0,0-0.11-0.03-0.11-0.03c-3.87,2.66-7.34,5.74-10.09,9.58l-0.13,0.22c0,0,0,0,0,0.01c-0.26,0.35-0.52,0.69-0.78,1.04l-0.05,0.01
		c0,0,0,0,0,0c-0.55,0.76-1.1,1.51-1.65,2.27c0.01,0,0.01,0,0.02,0c-0.64,1.02-1.28,2.04-1.92,3.06
		C67.35,252.89,66.68,252.56,66.01,252.24z M73.86,246.72c0.82-0.06,1.66-0.15,2.02,0.7C75.52,246.57,74.68,246.66,73.86,246.72z
		 M84.16,279c0.11,0.04,0.22,0.07,0.34,0.1C84.38,279.07,84.26,279.04,84.16,279z M99.98,295.52c0.32-0.15,0.73-0.19,1.22-0.12l0,0
		C100.71,295.34,100.3,295.38,99.98,295.52z M123.89,285.95c-0.96,0.45-1.93,0.91-2.89,1.36c-7.55,2.99-15.24,2.63-22.98,0.97
		c-0.29-0.07-0.59-0.12-0.89-0.13c-0.96-1.53-2.63-1.95-4.11-2.68c-0.15-0.27-0.37-0.39-0.68-0.38c-0.42-0.31-0.84-0.62-1.26-0.93
		c0,0,0,0,0.01,0c0,0,0,0,0,0c0,0,0,0,0,0l0,0c-0.6-0.45-1.19-0.9-1.79-1.36c0,0.01,0.01,0.02,0.01,0.04
		c-0.37-0.3-0.74-0.61-1.11-0.91l0.1,0.12c-0.39-0.36-0.79-0.72-1.18-1.08c-0.68-0.59-1.35-1.19-2.03-1.78l0,0
		c-0.56-0.48-1.11-0.96-1.67-1.44l-0.01,0.01c-0.34-0.31-0.69-0.63-1.03-0.94c0,0.01,0,0.01,0,0.02c-0.36-0.32-0.72-0.65-1.07-0.97
		c0,0,0,0,0,0c-0.33-0.33-0.66-0.66-0.99-1c0,0.03,0.01,0.04,0.01,0.07c-0.38-0.41-0.76-0.83-1.14-1.24
		c-0.06-0.36-0.26-0.56-0.62-0.6c-0.47-0.46-0.93-0.92-1.4-1.39c-0.06-0.37-0.27-0.58-0.63-0.63c-0.41-0.36-0.82-0.73-1.23-1.09
		c0.02,0,0.04,0.01,0.06,0.02c0,0,0,0,0,0c0,0,0,0,0,0c0,0,0,0,0,0c-0.32-0.34-0.63-0.68-0.95-1.02c0.01,0,0.01,0,0.02,0
		c0,0,0,0,0,0c0,0,0,0,0,0l-0.01-0.01c-0.45-0.62-0.89-1.24-1.33-1.86c-0.18-0.35-0.36-0.69-0.54-1.04c0,0,0,0,0,0
		c-0.48-1.29-0.95-2.58-1.43-3.87c-0.04-0.99-0.09-1.99-0.13-2.98c0.3-1.33,0.61-2.66,0.91-3.98c0.41-0.93,0.82-1.85,1.24-2.78v0
		c0.52-0.74,1.05-1.48,1.57-2.22c0.45-0.62,0.9-1.24,1.35-1.85c0,0,0,0,0,0c3.17-2.86,6.35-5.71,9.52-8.56l0.03-0.06
		c0.25,0.02,0.39-0.09,0.44-0.33c0.67-0.36,1.34-0.72,2.01-1.08c0.44-0.23,0.87-0.45,1.31-0.68c0,0,0.02,0.03,0.02,0.03
		c9.34-1.67,13.18,1.02,12.35,10.55c-1.33,15.29,13.34,23.7,26.45,19.79c5.99-1.79,11.02-5.27,16.32-8.33
		c0.19,0.24,0.39,0.46,0.62,0.67C141.19,271.51,133.05,279.15,123.89,285.95z M153.17,225.07c-2.57,6.43-2.65,13.32-3.31,20.08
		c-0.35,3.54-1.6,6.32-4.66,8.34c-4.71,3.11-9.14,6.65-14.42,8.85c-13.39,5.56-24.08-0.77-25.53-15.26
		c-0.44-4.35-1.07-8.56-3.64-12.24c-0.18,0.56-0.39,0.97-0.64,1.27c0.25-0.3,0.46-0.71,0.64-1.27c0,0-0.06,0-0.06,0
		c-0.71-2.15-1.79-4.08-3.42-5.68c0,0,0,0,0,0.01c-0.28-0.4-0.55-0.8-0.83-1.2c0,0,0.03-0.11,0.03-0.11
		c-3.58-6.76-3.32-8.34,2.32-13.78c3.37-3.25,7.1-6.01,11.38-7.97c10.94-5.03,18.26-3.76,26.54,4.9c4.07,4.25,8.71,7.68,13.67,10.76
		C152.43,222.48,154.05,222.88,153.17,225.07z M190.53,210.81c-6.66,2.56-13.18,5.52-19.73,8.37c-5.24,2.28-10.3,1.99-15.37-0.56
		c-8.9-4.47-14.93-11.44-18.57-20.63c-2.21-5.59-3.57-11.41-4.85-17.25c-1.22-5.6-3.49-10.71-6.78-15.4
		c-5.28-7.51-5.2-7.64,3.73-10.1c0.67-0.05,1.35-0.1,2.02-0.15c10.12,0.63,20.23,1.61,30.35,1.76c7.59,0.11,15.31-0.29,22.23-4.25
		c0,0,0.35-0.06,0.35-0.06c2.3-0.45,4.33-1.44,6.06-3.01c0.65-0.37,1.31-0.73,1.96-1.1c1.27-0.26,2.28-0.94,3.08-1.95
		c0,0-0.01,0-0.01,0c0.36-0.28,0.71-0.55,1.07-0.83c0,0.02-0.01,0.03-0.02,0.05c0.64-0.42,1.27-0.84,1.91-1.26
		c0.35-0.26,0.69-0.52,1.04-0.78c0.38-0.33,0.76-0.65,1.14-0.98c-0.01,0.03-0.02,0.05-0.02,0.08c0.59-0.45,1.17-0.9,1.76-1.35
		c0.71-0.58,1.42-1.16,2.13-1.74c1.01-0.36,1.7-1.05,2.11-2.03c1-0.39,1.63-1.13,2.01-2.12c0.58-0.72,1.17-1.44,1.75-2.16v0
		c1.8-1.65,3.17-3.6,4.07-5.87c1.05-0.76,1.62-1.81,1.91-3.05c0.22-0.08,0.3-0.23,0.22-0.46c0.41-0.75,0.82-1.5,1.23-2.25
		c0,0.02,0,0.04,0.01,0.06c1.33-1.17,2.08-2.68,2.5-4.37c0,0,0.03-0.06,0.03-0.06c1.26-2.3,2.61-4.56,3.73-6.92
		c0.52-1.1,1.43-2.68-0.05-3.57c-1.64-0.99-2.19,0.74-2.88,1.8c-1.27,1.92-2.54,3.84-3.8,5.77c-1.36,1.16-2.72,2.33-4.08,3.49
		c-0.62,0.5-1.25,1.01-1.87,1.51c-1.02,0.22-1.78,0.8-2.3,1.7c0,0-0.04-0.02-0.04-0.02c-21.57,15.01-46.39,11.9-70.8,12.89
		c0.48-2.33,1.84-3.79,3.04-5.34c4.6-5.91,10.01-11.08,15.16-16.5c1.08-1.14,3.98-2.14,2.21-4.16c-1.75-1.98-3.14,0.59-4.42,1.63
		c-14.01,11.5-24.54,25.55-31.16,42.47c0,0-0.07-0.02-0.07-0.02c-0.58,0.58-1.17,1.17-1.75,1.75c-0.05,1.49-0.1,2.71-0.19,3.71
		c-0.06,0.67-0.13,1.23-0.22,1.72c0.1-0.48,0.17-1.05,0.22-1.72c0.08-1,0.13-2.22,0.19-3.71c-0.59,0.25-1.17,0.5-1.76,0.75
		c-2.21-0.57-4.42-1.14-6.62-1.71l0.02,0.16c0,0,0,0,0,0c-0.41-0.38-0.83-0.77-1.24-1.15c-0.25-0.21-0.49-0.42-0.74-0.63
		c-0.43-0.37-0.86-0.73-1.3-1.1l0.12,0.1c-0.37-0.37-0.73-0.73-1.1-1.1l0.1,0.11c-0.37-0.41-0.74-0.81-1.11-1.22
		c-0.26-0.26-0.52-0.52-0.78-0.79c-0.35-0.36-0.71-0.72-1.06-1.08c0.02,0,0.03,0.01,0.05,0.01c0,0,0,0,0,0c0,0,0,0,0,0l0,0
		c-0.44-0.61-0.87-1.22-1.3-1.83c-2.42-4.69-2.42-9.88-3.09-14.94c0-1.01,0.01-2.01,0.01-3.02c0.29-3.99,0.58-7.98,0.88-11.97
		c0.06-0.67,0.12-1.33,0.19-2l0,0c1.38-4.3,2.77-8.61,4.15-12.91c0.32-0.68,0.65-1.36,0.97-2.05l0,0c0.26-0.12,0.37-0.32,0.31-0.6
		l-0.05-0.12c0,0,0,0,0,0c1.14-1.08,1.72-2.44,2.09-3.93c0,0,0,0,0,0c0,0,0,0,0-0.01c1.38-1.43,2.3-3.13,2.92-5
		c0.84-0.57,1.41-1.31,1.58-2.33l0,0v0c0.72-0.98,1.43-1.95,2.15-2.93c0.28-0.36,0.56-0.71,0.84-1.07c0,0,0,0,0,0
		c0.46-0.58,0.92-1.17,1.37-1.75c-0.01,0-0.01,0-0.02,0c0.32-0.34,0.64-0.68,0.97-1.01c-0.02,0-0.03,0.01-0.05,0.02
		c0.37-0.37,0.75-0.74,1.12-1.11c0.25-0.25,0.49-0.49,0.74-0.74c0,0,0,0,0,0c0.99-0.45,1.78-1.12,2.19-2.16
		c0.31-0.3,0.63-0.6,0.94-0.9c0,0.01-0.01,0.02-0.01,0.02c0,0,0,0,0,0c0,0,0,0,0,0l0.01-0.01c0.36-0.32,0.72-0.63,1.08-0.94
		c0,0.01,0,0.02,0,0.03c0,0,0,0,0,0c0,0,0,0,0,0l0-0.01c0.55-0.48,1.1-0.95,1.66-1.43c0.99-0.82,1.97-1.64,2.96-2.46
		c0.1-0.57,0.34-1.01,0.8-1.2c-0.47,0.19-0.7,0.62-0.81,1.2c0.42-0.4,0.84-0.81,1.27-1.21c1.19-0.43,2.13-1.18,2.82-2.24
		c1-0.27,1.73-0.89,2.23-1.79c-0.01,0-0.01,0-0.02,0c0.58-0.42,1.16-0.84,1.74-1.26c0,0,0,0,0,0l0,0v0l0,0
		c0.84-0.61,1.68-1.22,2.52-1.84c0.24,0.05,0.39-0.04,0.47-0.27c0.4-0.28,0.8-0.56,1.2-0.85c0.32-0.18,0.63-0.37,0.95-0.55
		c0,0,0,0,0,0c0.41-0.37,0.83-0.73,1.24-1.1l0.1,0.14c0,0,0,0,0,0c1.4-0.48,2.75-1.06,3.69-2.29c1.48-0.65,3-1.23,4.44-1.96
		c15.88-8.1,32.48-11.87,50.3-8.58c0.66,0.12,1.31,0.24,1.97,0.36c5.48,1.94,10.76,4.36,15.91,7.04c0.77,1.03,1.82,1.63,3.06,1.91
		c0,0,0,0,0,0c0.63,0.37,1.26,0.73,1.89,1.1c0.97,1.23,2.26,1.96,3.75,2.36l0.35-0.09l-0.22,0.08c-0.04,0.02-0.08,0.02-0.12,0.04
		c0,0,0,0,0,0l0,0c0,0,0,0,0,0c0.79,0.45,1.58,0.9,2.37,1.36c0.13,0.23,0.32,0.32,0.58,0.26c0.12-0.01,0.25-0.02,0.37-0.02
		c-0.12,0-0.24,0.01-0.37,0.02c0.77,0.37,1.54,0.75,2.3,1.12c0,0,0,0,0,0c2.72,2,5.85,2.94,9.1,3.6c0.2,0.19,0.44,0.27,0.72,0.24
		c0,0,0,0,0,0c1.09,0.63,2.18,1.26,3.26,1.88c0,0,0,0,0,0l0,0c0,0,0,0,0,0l0,0c-0.03-0.26-0.08-0.49-0.15-0.69
		c-0.13-0.4-0.34-0.67-0.59-0.86c-0.25-0.19-0.56-0.29-0.89-0.34c0.33,0.05,0.64,0.15,0.89,0.34s0.46,0.47,0.59,0.86
		c0.07,0.2,0.12,0.43,0.15,0.69c0.32,0.34,0.65,0.69,0.97,1.03c0,0-0.01,0-0.01,0c5.2,9.18,6.06,18.82,3.05,28.87
		c-7.86,26.29-18.17,51.31-35.88,72.83c-7.86,9.55-13.53,20.54-17.07,32.47C197.54,206.29,194.95,209.11,190.53,210.81z
		 M192.42,131.44c-0.04,0.17-0.2,0.39-0.28,0.58c0,0,0,0,0,0C192.22,131.82,192.37,131.61,192.42,131.44z M203.14,128.75
		c0,0,0.08-0.07,0.07-0.07c2.4,0.03,3.81-3.14,6.54-2.04c-0.13,0.21-0.21,0.45-0.23,0.7c1.47,0.05,2.93,0.1,4.4,0.15l0,0
		c-1.47-0.05-2.93-0.1-4.4-0.15c-0.58,0.69-1.17,1.38-1.75,2.06c0,0,0,0,0,0c-3,2.87-6,5.75-9,8.62c0,0,0,0,0,0
		c-0.59,0.48-1.17,0.96-1.76,1.44c-0.73,0.57-1.47,1.14-2.2,1.72c-0.4,0.32-0.79,0.65-1.19,0.97c0.01-0.03,0.02-0.05,0.02-0.08
		c0,0,0,0,0,0c0,0,0,0,0,0c0,0,0,0,0,0c-0.38,0.28-0.77,0.56-1.15,0.84l-0.01-0.04c0,0,0,0,0,0c-0.71,0.45-1.43,0.9-2.14,1.35
		l-0.27-0.01l-0.16,0.22l0,0c-1.3,0.27-2.4,0.9-3.3,1.87c-0.59,0.28-1.18,0.56-1.78,0.83c0,0,0,0,0,0
		c-10.02,4.01-20.37,5.44-31.11,4.15c-8.24-0.99-16.49-1.09-24.72,0.16l-0.05-0.02c-0.31-0.34-0.61-0.68-0.92-1.02
		c0.09-0.31,0.1-0.63,0.06-0.95c-0.62-0.19-1.13-0.14-1.58,0.04c0.44-0.18,0.95-0.22,1.58-0.04c5.95-13.27,17.92-11.95,29.06-11.38
		C173.37,138.88,188.85,137.05,203.14,128.75z M209.75,126.64L209.75,126.64c-0.37-0.81-0.86-1.59-1.19-2.41
		C208.89,125.05,209.38,125.83,209.75,126.64z M208.19,122.64c0,0.31,0.06,0.61,0.14,0.9C208.25,123.25,208.2,122.95,208.19,122.64z
		 M209.86,133.05c0-0.32,0.01-0.64,0.01-0.96C209.87,132.41,209.85,132.73,209.86,133.05z M193.51,233.17
		c5.77-24.12,14.08-47.17,29.83-66.79c13.02-16.21,21.6-34.58,27.69-54.28c0.6-1.95,0.86-4.22,3.12-6.05
		c1.36,2.78,1.29,5.5,1.33,8.22c0.43,30.47-10.14,56.83-29.63,79.95c-6.43,7.62-12.64,15.44-18.75,23.32
		c-4.6,5.93-8.36,12.4-11.22,19.37c-0.86,2.09-1.76,4.2-4.38,6.69C192.32,239.31,192.79,236.21,193.51,233.17z M168.47,310.92
		c-0.09-0.05-0.19-0.11-0.28-0.16c0.1-0.15,0.2-0.3,0.31-0.46c0.09,0.11,0.26,0.22,0.26,0.32
		C168.74,310.72,168.57,310.82,168.47,310.92z M287.67,156.46C287.67,156.46,287.67,156.46,287.67,156.46
		C287.67,156.46,287.67,156.46,287.67,156.46z M290.64,151.36c-0.33,0.57-0.66,1.13-0.99,1.7c0,0,0,0,0,0
		c-0.53,0.78-1.06,1.57-1.6,2.35c-0.27,0.15-0.4,0.38-0.39,0.69c0,0,0,0,0,0c-0.43,0.66-0.87,1.31-1.3,1.97
		c0-0.02-0.01-0.03-0.01-0.05c0,0,0,0,0,0c0,0,0,0,0,0l0,0c-0.59,0.76-1.18,1.53-1.76,2.29c-0.27,0.34-0.54,0.68-0.81,1.02
		c-0.45,0.56-0.89,1.12-1.34,1.68c-0.97,0.44-1.62,1.16-1.93,2.18l-0.05-0.03c-24.35,21.96-48.33,44.28-67.83,70.89
		c-4.65,6.35-8.44,13.09-10.91,20.62c-6.42,19.65-18.53,35.95-31.12,51.94c-0.28,0.35-0.82,0.5-2.29,1.33
		c3.27-9.04,6.01-17.28,9.22-25.33c8.15-20.4,18.98-39.48,29.52-58.68c4.36-7.95,10.67-14.43,16.62-21.15
		c17.76-20.06,30.91-42.31,34.84-69.4c3.23-22.32,0.74-44.1-4.62-65.74c0,0,0,0,0,0l-0.01-0.02c0.94,0.12,1.88,0.23,2.82,0.35
		c0.52,0.24,1.04,0.48,1.56,0.72c0.51,0.33,1.01,0.65,1.52,0.98c0.41,0.27,0.82,0.54,1.23,0.81c0.54,0.05,1.12,0.04,1.59,0.21
		c-0.47-0.17-1.05-0.16-1.59-0.21c0.85,0.5,1.69,1,2.54,1.49c0-0.03-0.01-0.04-0.02-0.07c0.38,0.26,0.75,0.52,1.13,0.77c0,0,0,0,0,0
		c0.65,0.42,1.29,0.83,1.94,1.25c0-0.02-0.01-0.04-0.02-0.07c0.37,0.26,0.73,0.53,1.1,0.79c0,0,0,0,0,0c0,0,0,0,0,0c0,0,0,0,0,0
		l0.07,0.05c-0.01-0.01-0.02-0.01-0.02-0.02c0.63,0.41,1.26,0.81,1.89,1.22c0-0.02-0.01-0.04-0.02-0.06
		c0.36,0.27,0.71,0.54,1.07,0.81c0,0,0,0,0,0c0,0,0,0,0,0c0,0,0,0,0,0l0.07,0.05c-0.01-0.01-0.01-0.01-0.02-0.02
		c0.65,0.47,1.3,0.94,1.95,1.4c0.29,0.19,0.57,0.37,0.86,0.56c0,0,0,0,0,0c0.63,0.43,1.25,0.85,1.88,1.28c-0.01,0-0.01,0-0.02,0
		c0,0,0,0,0,0c0,0,0,0,0,0l0.01,0.01c0.48,0.4,0.96,0.81,1.44,1.21c0.66,0.45,1.32,0.91,1.98,1.36c0.11,0.01,0.22,0.02,0.32,0.03
		c0.21,0.03,0.41,0.08,0.58,0.15c-0.18-0.07-0.37-0.12-0.58-0.15c-0.1-0.01-0.21-0.02-0.32-0.03c0.61,0.43,1.22,0.87,1.84,1.3
		c0-0.01-0.01-0.02-0.01-0.04c0.34,0.29,0.69,0.57,1.03,0.86c-0.01,0-0.01,0-0.02,0c0,0,0,0,0,0c0,0,0,0,0,0l0.01,0
		c0.58,0.45,1.15,0.91,1.73,1.36l0.02-0.01c0.76,1.33,1.95,2.14,3.29,2.78v0c1.04,0.91,2.07,1.82,3.11,2.72
		c0.11,0.01,0.22,0.02,0.33,0.04c-0.11-0.02-0.22-0.03-0.33-0.04c0.55,0.48,1.1,0.96,1.66,1.44c0-0.01,0-0.01,0-0.02
		c0.32,0.3,0.64,0.6,0.96,0.91c0,0,0,0,0,0l0.04,0.04c0.32,0.32,0.65,0.64,0.97,0.96c0,0-0.01,0-0.01,0c0,0,0,0,0,0c0,0,0,0,0,0
		l0.01,0.01c0.32,0.33,0.64,0.66,0.96,1c-0.01,0-0.02,0-0.04,0c0,0,0,0,0,0c0,0,0,0,0,0l0.01,0c0.47,0.57,0.94,1.14,1.41,1.72
		c0,0,0,0,0,0c0.3,0.34,0.59,0.69,0.89,1.03c0.34,0.43,0.68,0.87,1.01,1.3c-0.01,0.29,0.12,0.49,0.39,0.6
		c0.46,0.06,0.81,0.21,1.07,0.43s0.44,0.51,0.53,0.87c-0.09-0.36-0.26-0.65-0.53-0.87s-0.62-0.36-1.07-0.43
		c0.56,0.7,1.12,1.4,1.68,2.09c0,0,0-0.01,0-0.01c0.31,0.43,0.62,0.86,0.93,1.29c-0.01,0.3,0.12,0.53,0.39,0.67
		c0.25,0.31,0.49,0.62,0.74,0.93l0.01,0.02l0,0c0.7,2.08,0.73,4.15,0.46,6.35c-1.14,9.43-4.35,18.33-6.76,27.43
		c-0.72,0.52-0.85,1.29-0.87,2.11c0.01,0,0.01-0.01,0.02-0.01c-0.32,0.69-0.64,1.39-0.95,2.08l-0.11,0.38c0,0,0,0,0,0
		c-0.39,0.8-0.79,1.61-1.19,2.41c0.02-0.01,0.04-0.02,0.06-0.03c-0.23,0.39-0.47,0.78-0.7,1.17c0,0,0,0,0,0c0,0,0,0,0,0c0,0,0,0,0,0
		l0,0.01C291.38,150.03,291.01,150.7,290.64,151.36c0.21-0.1,0.39-0.22,0.53-0.36C291.03,151.14,290.85,151.26,290.64,151.36z
		 M303.81,110.91c0.02-0.22,0.04-0.45,0.04-0.67C303.85,110.46,303.83,110.68,303.81,110.91z M324.06,82.67
		c0.18,0.31,0.47,0.54,0.9,0.68v0C324.53,83.21,324.24,82.98,324.06,82.67z"/>
</g>
</svg>
